<svg xmlns="http://www.w3.org/2000/svg" width="35" height="35" fill="none"><path fill="#131313" d="M17.51 19.32h-1.8v-2.46h1.8c.32-.03.64.08.9.32.23.23.35.56.34.91.01.35-.11.68-.35.92-.24.23-.55.34-.89.31Zm-1.8-5.78h1.7c.44-.04.85.17 1.07.55.23.38.23.87 0 1.24-.22.38-.63.6-1.06.54H15.7v-2.33Zm3.18 3-.43-.21.43-.2c.52-.3.86-.87.86-1.49 0-1.3-.82-2.08-2.2-2.08h-2.92v7.75h3.05c1.36 0 2.18-.8 2.18-2.14.03-.7-.36-1.35-.97-1.63Zm-8.7 2.7v-5.61h1.02v4.63h2.38v.97h-3.4v.01Zm12.91 0a1.8 1.8 0 0 1-1.38-.53 1.93 1.93 0 0 1-.57-1.4v-3.67h1.04v3.6c-.03.37.15.71.44.9.3.19.67.19.96 0 .3-.2.47-.53.44-.9v-3.61h1.03v3.66a2 2 0 0 1-.57 1.41c-.37.37-.87.57-1.39.54ZM17.5 6.68a9.68 9.68 0 0 0-8.94 6.1 10.05 10.05 0 0 0 2.1 10.77 9.52 9.52 0 0 0 10.53 2.15 9.88 9.88 0 0 0 5.97-9.13 9.78 9.78 0 0 0-9.66-9.89Zm0 19.37a9.25 9.25 0 0 1-8.56-5.85 9.64 9.64 0 0 1 2-10.33 9.1 9.1 0 0 1 10.11-2.05 9.5 9.5 0 0 1 5.72 8.76 9.4 9.4 0 0 1-9.27 9.47Zm0-19.99A10.3 10.3 0 0 0 8 12.55C6.4 16.47 7.28 21 10.2 24c2.95 3 7.36 3.9 11.2 2.29a10.5 10.5 0 0 0 6.34-9.72A10.37 10.37 0 0 0 17.5 6.06Zm0 22c-4.54 0-8.65-2.8-10.38-7.1A11.69 11.69 0 0 1 9.55 8.44a11.06 11.06 0 0 1 12.24-2.5 11.48 11.48 0 0 1 6.92 10.63c0 6.34-5.02 11.47-11.21 11.49ZM23.47.14C21.4-.34 18.9.57 18.9.57c-.44.17-.91.25-1.4.25-.48.01-.97-.05-1.43-.22 0 0-2.5-.94-4.55-.43 0 0-2.01.39-1.54 3.05 0 0 .11-2.07 2.67-2.07 0 0 .95-.04 2.97.9a4.16 4.16 0 0 0 1 .36l.13.03.18.03c.38.06.75.06 1.11 0l.18-.07.17-.04h.07l.3-.1c.19-.07.38-.15.57-.25 2-.93 2.97-.9 2.97-.9 2.56 0 2.67 2.07 2.67 2.07.5-2.64-1.53-3.04-1.51-3.04ZM0 17.2c.28-2.14 2.03-4.22 2.03-4.22.32-.38.57-.8.74-1.27.16-.45.25-.94.26-1.44 0 0 0-2.75 1.18-4.54 0 0 1.07-1.79 3.36-.38 0 0-1.96-.65-2.86 1.82 0 0-.38.89-.22 3.17.02.21.04.43.02.65l-.02.45c0 .05 0 .1-.03.14l-.04.2c-.09.36-.23.73-.4 1.06l-.09.15-.1.15-.04.06c-.05.08-.12.16-.2.25-.13.15-.27.3-.42.44-1.57 1.62-1.89 2.55-1.89 2.55-.9 2.45.99 3.31.99 3.31C-.32 19.27 0 17.2 0 17.2Zm34.99.02c-.28-2.15-2.04-4.23-2.04-4.23a4.2 4.2 0 0 1-.99-2.7s0-2.76-1.18-4.56c0 0-1.07-1.79-3.37-.38 0 0 1.97-.65 2.87 1.82 0 0 .38.9.23 3.19a4.98 4.98 0 0 0 0 1.1v.13l.04.2c.08.37.22.73.4 1.06l.08.15.1.16.04.05c.06.09.13.18.2.25.13.15.27.3.43.44 1.58 1.6 1.88 2.54 1.88 2.54.92 2.47-.98 3.33-.98 3.33 2.63-.5 2.27-2.58 2.27-2.58l.02.03ZM2.89 26.46c1.45 1.6 4.1 2.22 4.1 2.22.95.24 1.78.8 2.36 1.6 0 0 1.6 2.24 3.6 2.99 0 0 1.91.82 2.98-1.72 0 0-1.25 1.72-3.4.25 0 0-.83-.51-2.01-2.47a4.62 4.62 0 0 0-.64-.9l-.1-.1-.14-.12c-.27-.26-.6-.47-.93-.64l-.15-.07-.16-.07-.07-.03c-.1-.04-.2-.06-.3-.08-.2-.05-.41-.08-.63-.1-2.2-.34-3-.92-3-.92C2.23 24.83 3.3 23 3.3 23c-1.88 1.98-.4 3.46-.41 3.46Zm29.2 0c-1.46 1.6-4.1 2.22-4.1 2.22-.94.24-1.8.79-2.37 1.6 0 0-1.59 2.24-3.58 2.99 0 0-1.92.82-2.99-1.72 0 0 1.25 1.72 3.4.25 0 0 .84-.51 2-2.47a4.62 4.62 0 0 1 .64-.9l.1-.1.14-.12c.27-.25.6-.47.94-.64l.15-.07.17-.07.07-.03.29-.08c.2-.05.43-.08.64-.1 2.19-.36 3-.94 3-.94 2.15-1.47 1.1-3.3 1.1-3.3 1.88 2 .4 3.48.4 3.48ZM17.61 35l.92-6.14H16.7l.91 6.14Zm17.11-12.82-5.42-2.94-.3.94-.29.95 6.01 1.05Zm-34.48 0 5.43-2.94.29.94.29.95-6.01 1.05ZM28.2 1.33l-2.9 5.62-.78-.58-.78-.59 4.46-4.45Zm-21.41 0 2.9 5.62.77-.58.78-.59-4.45-4.45Z"/></svg>